PathFileType	4	(X/Y/Z)	1H_nor_med_right.trc
DataRate	CameraRate	NumFrames	NumMarkers	Units	OrigDataRate	OrigDataStartFrame	OrigNumFrames
250.00	250.00	10	18	mm	250.00	4129	11009
Frame#	Time	c7	r_should	l_should	clavicle	r_upa	r_elb_l	r_elb_m	r_low	r_wri_l	r_wri_m	r_met	l_upa	l_elb_l	l_elb_m	l_low	l_wri_l	l_wri_m	l_met
	X1	Y1	Z1	X2	Y2	Z2	X3	Y3	Z3	X4	Y4	Z4	X5	Y5	Z5	X6	Y6	Z6	X7	Y7	Z7	X8	Y8	Z8	X9	Y9	Z9	X10	Y10	Z10	X11	Y11	Z11	X12	Y12	Z12	X13	Y13	Z13	X14	Y14	Z14	X15	Y15	Z15	X16	Y16	Z16	X17	Y17	Z17	X18	Y18	Z18
4129	16.51200	1218.17395	1425.78491	131.70653	1278.86572	1376.93323	282.43390	1227.35583	1360.00354	-44.32166	1326.44348	1286.84644	112.71593	1307.00671	1182.40125	370.01245	1310.82678	1113.70117	396.03473	1235.48486	1069.30286	370.90372	1369.08118	1041.58240	326.20743	1417.89832	987.66644	235.72740	1389.13416	929.29236	276.24936	1480.10132	940.89624	227.15598	1210.79773	1148.50574	-105.04543	1212.76611	1041.56531	-125.26964	1174.13574	1029.35193	-31.30932	1218.80103	918.56219	-121.07791	1240.16003	800.06097	-99.11835	1161.30713	796.38544	-98.44480	1221.69788	723.42853	-141.80811
4130	16.51600	1218.24268	1425.79187	131.69757	1278.93982	1376.87891	282.44043	1227.41968	1360.02173	-44.33897	1326.51660	1286.85767	112.68940	1307.06750	1182.25903	369.88168	1310.97876	1113.31384	395.81763	1235.59143	1069.04578	370.69290	1369.15796	1040.60803	326.27856	1418.03479	986.04474	236.10513	1388.95984	927.93597	276.92285	1480.08374	939.02844	227.97940	1210.85657	1148.51501	-105.05757	1212.80774	1041.58325	-125.28165	1174.18823	1029.36914	-31.32615	1218.83875	918.57245	-121.09500	1240.20288	800.07434	-99.12611	1161.35840	796.40649	-98.44700	1221.65027	723.65295	-142.00558
4131	16.52000	1218.31555	1425.80103	131.68996	1279.02197	1376.81909	282.44186	1227.48889	1360.03760	-44.35491	1326.59009	1286.87061	112.66030	1307.12537	1182.10156	369.75168	1311.12866	1112.93237	395.60089	1235.69421	1068.79321	370.47702	1369.24634	1039.62061	326.34476	1418.15234	984.37128	236.50807	1388.77087	926.57068	277.58707	1480.06799	937.16406	228.80891	1210.91345	1148.52222	-105.07286	1212.85425	1041.59778	-125.29678	1174.25500	1029.37891	-31.34668	1218.87964	918.57916	-121.11626	1240.25769	800.07941	-99.12370	1161.41895	796.42377	-98.45466	1221.67212	723.71796	-142.05220
4132	16.52400	1218.38293	1425.81055	131.67934	1279.11401	1376.74683	282.44257	1227.55518	1360.05151	-44.37189	1326.65942	1286.87830	112.62039	1307.18689	1181.93420	369.60193	1311.26624	1112.56726	395.37909	1235.79285	1068.39307	370.05731	1369.81519	1038.85889	327.19470	1418.28003	982.72620	236.90024	1388.57019	925.20734	278.21924	1480.67932	935.52484	229.93172	1210.97327	1148.53748	-105.09036	1212.90808	1041.61462	-125.32082	1174.30005	1029.38599	-31.36128	1218.93213	918.57568	-121.12632	1240.30786	800.08319	-99.12547	1161.47668	796.43549	-98.46207	1221.71594	723.74066	-142.05679
4133	16.52800	1218.45166	1425.81848	131.67650	1279.20569	1376.67664	282.44269	1227.61426	1360.06812	-44.38878	1326.72949	1286.88110	112.57612	1307.25244	1181.76062	369.43851	1311.39905	1112.20251	395.14273	1235.88831	1067.80615	369.38010	1371.01819	1038.39038	329.00983	1418.40283	981.07135	237.31104	1388.36182	923.84375	278.87036	1481.99805	934.11731	231.37653	1211.03833	1148.54822	-105.10754	1212.96936	1041.62231	-125.34001	1174.35046	1029.39868	-31.37220	1218.98315	918.58282	-121.13872	1240.35815	800.10638	-99.14075	1161.52930	796.44543	-98.46323	1221.76624	723.75415	-142.04913
4134	16.53200	1218.51660	1425.81970	131.67375	1279.29663	1376.59570	282.43936	1227.66443	1360.08472	-44.40949	1326.79993	1286.88477	112.53815	1307.31787	1181.57532	369.26700	1311.53113	1111.82214	394.90829	1235.84851	1067.38379	368.63040	1370.83240	1037.44824	328.70670	1418.53381	979.42108	237.71658	1388.18506	922.49518	279.56683	1482.08765	932.24146	232.28227	1211.10205	1148.55640	-105.12234	1213.02405	1041.63098	-125.34940	1174.40198	1029.40686	-31.39426	1219.03430	918.59607	-121.15693	1240.41492	800.13202	-99.14510	1161.58252	796.47333	-98.47585	1221.81946	723.76056	-142.04050
4135	16.53600	1218.58142	1425.81458	131.67125	1279.39099	1376.51086	282.43872	1227.71338	1360.09949	-44.43426	1326.86536	1286.88123	112.49431	1307.38745	1181.38696	369.09415	1311.66504	1111.41431	394.66098	1235.59802	1066.93457	367.48886	1369.67542	1036.24768	327.14056	1418.64172	977.74561	238.13086	1388.01624	921.14465	280.28568	1481.96021	930.34918	233.09085	1211.16138	1148.56201	-105.13451	1213.08191	1041.64221	-125.37402	1174.45398	1029.41785	-31.41512	1219.09717	918.60626	-121.15979	1240.47583	800.14386	-99.14474	1161.64172	796.49677	-98.48918	1221.87427	723.76215	-142.02722
4136	16.54000	1218.64001	1425.80566	131.66342	1279.48303	1376.42749	282.43964	1227.75427	1360.11621	-44.45563	1326.92725	1286.88342	112.44198	1307.45703	1181.19714	368.91949	1311.80566	1110.99524	394.40820	1235.80298	1066.80627	367.56470	1369.55237	1035.17603	326.75919	1418.76941	976.06470	238.61235	1387.79688	919.77222	280.93124	1481.78442	928.43335	233.88789	1211.22485	1148.56641	-105.15987	1213.13977	1041.65430	-125.39473	1174.51562	1029.42725	-31.44179	1219.16125	918.61426	-121.17084	1240.53552	800.15100	-99.14347	1161.69958	796.51117	-98.50087	1221.93286	723.75775	-142.01537
4137	16.54400	1218.70178	1425.79651	131.65514	1279.58044	1376.34180	282.43427	1227.78308	1360.13440	-44.47610	1326.99280	1286.88391	112.39194	1307.53137	1181.00037	368.74182	1311.95886	1110.58533	394.17453	1236.29907	1066.98254	368.47705	1369.65308	1033.81055	326.73920	1418.93152	974.37598	239.08870	1387.30481	918.21136	281.59402	1481.55981	926.48895	234.68626	1211.28772	1148.57751	-105.18466	1213.20483	1041.65894	-125.41640	1174.56763	1029.43677	-31.46754	1219.22925	918.62927	-121.17461	1240.59778	800.16327	-99.14622	1161.76184	796.51965	-98.51284	1221.99414	723.75671	-142.00684
4138	16.54800	1218.76160	1425.78821	131.65224	1279.68286	1376.25977	282.41913	1227.81042	1360.14990	-44.49730	1327.05945	1286.88257	112.33589	1307.61267	1180.79834	368.56232	1312.11597	1110.18994	393.94812	1236.49854	1066.80359	368.49014	1369.75024	1032.70557	326.78030	1419.06482	972.71198	239.52737	1386.50818	916.42963	282.30618	1481.24170	924.51898	235.43916	1211.35071	1148.58948	-105.20746	1213.26648	1041.65991	-125.42924	1174.63062	1029.44739	-31.48528	1219.29309	918.64496	-121.19393	1240.66235	800.17426	-99.15077	1161.82544	796.53668	-98.52828	1222.05505	723.75598	-141.99388
